<mxfile host="app.diagrams.net" modified="2022-01-17T13:36:23.747Z" agent="5.0 (Windows NT 10.0; Win64; x64) AppleWebKit/537.36 (KHTML, like Gecko) Chrome/97.0.4692.71 Safari/537.36 Edg/97.0.1072.62" etag="LBDa68unhxQ_QcDr1Ozv" version="16.2.7" type="github">
  <diagram name="Page-1" id="42789a77-a242-8287-6e28-9cd8cfd52e62">
    <mxGraphModel dx="1038" dy="547" grid="1" gridSize="10" guides="1" tooltips="1" connect="1" arrows="1" fold="1" page="1" pageScale="1" pageWidth="1100" pageHeight="850" background="none" math="0" shadow="0">
      <root>
        <mxCell id="0" />
        <mxCell id="1" parent="0" />
        <mxCell id="430OXLAYMfgtic5GREOD-2" value="" style="ellipse;whiteSpace=wrap;html=1;aspect=fixed;" vertex="1" parent="1">
          <mxGeometry x="320" y="155" width="50" height="50" as="geometry" />
        </mxCell>
        <mxCell id="430OXLAYMfgtic5GREOD-4" value="" style="ellipse;whiteSpace=wrap;html=1;aspect=fixed;" vertex="1" parent="1">
          <mxGeometry x="420" y="45" width="50" height="50" as="geometry" />
        </mxCell>
        <mxCell id="430OXLAYMfgtic5GREOD-5" value="" style="ellipse;whiteSpace=wrap;html=1;aspect=fixed;" vertex="1" parent="1">
          <mxGeometry x="420" y="255" width="50" height="50" as="geometry" />
        </mxCell>
        <mxCell id="430OXLAYMfgtic5GREOD-6" value="" style="ellipse;whiteSpace=wrap;html=1;aspect=fixed;" vertex="1" parent="1">
          <mxGeometry x="600" y="45" width="50" height="50" as="geometry" />
        </mxCell>
        <mxCell id="430OXLAYMfgtic5GREOD-7" value="" style="ellipse;whiteSpace=wrap;html=1;aspect=fixed;" vertex="1" parent="1">
          <mxGeometry x="600" y="255" width="50" height="50" as="geometry" />
        </mxCell>
        <mxCell id="430OXLAYMfgtic5GREOD-9" value="" style="ellipse;whiteSpace=wrap;html=1;aspect=fixed;" vertex="1" parent="1">
          <mxGeometry x="710" y="155" width="50" height="50" as="geometry" />
        </mxCell>
        <mxCell id="430OXLAYMfgtic5GREOD-10" value="" style="endArrow=none;html=1;rounded=0;entryX=0;entryY=1;entryDx=0;entryDy=0;exitX=0.5;exitY=0;exitDx=0;exitDy=0;" edge="1" parent="1" source="430OXLAYMfgtic5GREOD-2" target="430OXLAYMfgtic5GREOD-4">
          <mxGeometry width="50" height="50" relative="1" as="geometry">
            <mxPoint x="350" y="155" as="sourcePoint" />
            <mxPoint x="400" y="105" as="targetPoint" />
          </mxGeometry>
        </mxCell>
        <mxCell id="430OXLAYMfgtic5GREOD-14" value="" style="endArrow=none;html=1;rounded=0;exitX=0;exitY=0;exitDx=0;exitDy=0;fillColor=#f8cecc;strokeColor=#b85450;" edge="1" parent="1" source="430OXLAYMfgtic5GREOD-5">
          <mxGeometry width="50" height="50" relative="1" as="geometry">
            <mxPoint x="300" y="255" as="sourcePoint" />
            <mxPoint x="350" y="205" as="targetPoint" />
          </mxGeometry>
        </mxCell>
        <mxCell id="430OXLAYMfgtic5GREOD-15" value="" style="endArrow=none;html=1;rounded=0;entryX=0;entryY=0.5;entryDx=0;entryDy=0;fillColor=#f8cecc;strokeColor=#b85450;" edge="1" parent="1" target="430OXLAYMfgtic5GREOD-6">
          <mxGeometry width="50" height="50" relative="1" as="geometry">
            <mxPoint x="470" y="70" as="sourcePoint" />
            <mxPoint x="520" y="25" as="targetPoint" />
            <Array as="points">
              <mxPoint x="490" y="70" />
            </Array>
          </mxGeometry>
        </mxCell>
        <mxCell id="430OXLAYMfgtic5GREOD-16" value="" style="endArrow=none;html=1;rounded=0;entryX=0;entryY=0.5;entryDx=0;entryDy=0;" edge="1" parent="1">
          <mxGeometry width="50" height="50" relative="1" as="geometry">
            <mxPoint x="470" y="279.5" as="sourcePoint" />
            <mxPoint x="600" y="279.5" as="targetPoint" />
            <Array as="points">
              <mxPoint x="490" y="279.5" />
            </Array>
          </mxGeometry>
        </mxCell>
        <mxCell id="430OXLAYMfgtic5GREOD-17" value="" style="endArrow=none;html=1;rounded=0;entryX=0.5;entryY=0;entryDx=0;entryDy=0;exitX=1;exitY=1;exitDx=0;exitDy=0;" edge="1" parent="1" source="430OXLAYMfgtic5GREOD-6" target="430OXLAYMfgtic5GREOD-9">
          <mxGeometry width="50" height="50" relative="1" as="geometry">
            <mxPoint x="660" y="75" as="sourcePoint" />
            <mxPoint x="732.3223304703363" y="4.99766952966371" as="targetPoint" />
          </mxGeometry>
        </mxCell>
        <mxCell id="430OXLAYMfgtic5GREOD-20" value="" style="endArrow=none;html=1;rounded=0;exitX=1;exitY=0.5;exitDx=0;exitDy=0;entryX=0.5;entryY=1;entryDx=0;entryDy=0;fillColor=#f8cecc;strokeColor=#b85450;" edge="1" parent="1" source="430OXLAYMfgtic5GREOD-7" target="430OXLAYMfgtic5GREOD-9">
          <mxGeometry width="50" height="50" relative="1" as="geometry">
            <mxPoint x="700" y="255" as="sourcePoint" />
            <mxPoint x="750" y="205" as="targetPoint" />
            <Array as="points" />
          </mxGeometry>
        </mxCell>
        <mxCell id="430OXLAYMfgtic5GREOD-21" value="" style="endArrow=none;html=1;rounded=0;exitX=1;exitY=0;exitDx=0;exitDy=0;entryX=0;entryY=1;entryDx=0;entryDy=0;" edge="1" parent="1" source="430OXLAYMfgtic5GREOD-5" target="430OXLAYMfgtic5GREOD-6">
          <mxGeometry width="50" height="50" relative="1" as="geometry">
            <mxPoint x="570" y="145" as="sourcePoint" />
            <mxPoint x="610" y="95" as="targetPoint" />
          </mxGeometry>
        </mxCell>
        <mxCell id="430OXLAYMfgtic5GREOD-23" value="" style="endArrow=none;html=1;rounded=0;entryX=0.5;entryY=1;entryDx=0;entryDy=0;exitX=0.5;exitY=0;exitDx=0;exitDy=0;fillColor=#f8cecc;strokeColor=#b85450;" edge="1" parent="1" source="430OXLAYMfgtic5GREOD-5" target="430OXLAYMfgtic5GREOD-4">
          <mxGeometry width="50" height="50" relative="1" as="geometry">
            <mxPoint x="440" y="255" as="sourcePoint" />
            <mxPoint x="490" y="205" as="targetPoint" />
          </mxGeometry>
        </mxCell>
        <mxCell id="430OXLAYMfgtic5GREOD-24" value="" style="endArrow=none;html=1;rounded=0;entryX=0.5;entryY=1;entryDx=0;entryDy=0;exitX=0.5;exitY=0;exitDx=0;exitDy=0;fillColor=#f8cecc;strokeColor=#b85450;" edge="1" parent="1">
          <mxGeometry width="50" height="50" relative="1" as="geometry">
            <mxPoint x="624.5" y="255" as="sourcePoint" />
            <mxPoint x="624.5" y="95" as="targetPoint" />
          </mxGeometry>
        </mxCell>
        <mxCell id="430OXLAYMfgtic5GREOD-25" value="S" style="text;html=1;align=center;verticalAlign=middle;resizable=0;points=[];autosize=1;strokeColor=none;fillColor=none;" vertex="1" parent="1">
          <mxGeometry x="335" y="170" width="20" height="20" as="geometry" />
        </mxCell>
        <mxCell id="430OXLAYMfgtic5GREOD-26" value="B" style="text;html=1;align=center;verticalAlign=middle;resizable=0;points=[];autosize=1;strokeColor=none;fillColor=none;" vertex="1" parent="1">
          <mxGeometry x="435" y="60" width="20" height="20" as="geometry" />
        </mxCell>
        <mxCell id="430OXLAYMfgtic5GREOD-27" value="D" style="text;html=1;align=center;verticalAlign=middle;resizable=0;points=[];autosize=1;strokeColor=none;fillColor=none;" vertex="1" parent="1">
          <mxGeometry x="615" y="60" width="20" height="20" as="geometry" />
        </mxCell>
        <mxCell id="430OXLAYMfgtic5GREOD-28" value="T" style="text;html=1;align=center;verticalAlign=middle;resizable=0;points=[];autosize=1;strokeColor=none;fillColor=none;" vertex="1" parent="1">
          <mxGeometry x="725" y="170" width="20" height="20" as="geometry" />
        </mxCell>
        <mxCell id="430OXLAYMfgtic5GREOD-29" value="E" style="text;html=1;align=center;verticalAlign=middle;resizable=0;points=[];autosize=1;strokeColor=none;fillColor=none;" vertex="1" parent="1">
          <mxGeometry x="615" y="270" width="20" height="20" as="geometry" />
        </mxCell>
        <mxCell id="430OXLAYMfgtic5GREOD-30" value="C" style="text;html=1;align=center;verticalAlign=middle;resizable=0;points=[];autosize=1;strokeColor=none;fillColor=none;" vertex="1" parent="1">
          <mxGeometry x="435" y="270" width="20" height="20" as="geometry" />
        </mxCell>
        <mxCell id="430OXLAYMfgtic5GREOD-32" value="4" style="text;html=1;align=center;verticalAlign=middle;resizable=0;points=[];autosize=1;strokeColor=none;fillColor=none;rotation=0;" vertex="1" parent="1">
          <mxGeometry x="370" y="105" width="20" height="20" as="geometry" />
        </mxCell>
        <mxCell id="430OXLAYMfgtic5GREOD-33" value="5" style="text;html=1;align=center;verticalAlign=middle;resizable=0;points=[];autosize=1;strokeColor=none;fillColor=none;" vertex="1" parent="1">
          <mxGeometry x="520" y="40" width="20" height="20" as="geometry" />
        </mxCell>
        <mxCell id="430OXLAYMfgtic5GREOD-34" value="6" style="text;html=1;align=center;verticalAlign=middle;resizable=0;points=[];autosize=1;strokeColor=none;fillColor=none;rotation=0;" vertex="1" parent="1">
          <mxGeometry x="690" y="105" width="20" height="20" as="geometry" />
        </mxCell>
        <mxCell id="430OXLAYMfgtic5GREOD-35" value="1" style="text;html=1;align=center;verticalAlign=middle;resizable=0;points=[];autosize=1;strokeColor=none;fillColor=none;" vertex="1" parent="1">
          <mxGeometry x="430" y="155" width="20" height="20" as="geometry" />
        </mxCell>
        <mxCell id="430OXLAYMfgtic5GREOD-36" value="2" style="text;html=1;align=center;verticalAlign=middle;resizable=0;points=[];autosize=1;strokeColor=none;fillColor=none;" vertex="1" parent="1">
          <mxGeometry x="690" y="235" width="20" height="20" as="geometry" />
        </mxCell>
        <mxCell id="430OXLAYMfgtic5GREOD-37" value="10" style="text;html=1;align=center;verticalAlign=middle;resizable=0;points=[];autosize=1;strokeColor=none;fillColor=none;" vertex="1" parent="1">
          <mxGeometry x="515" y="285" width="30" height="20" as="geometry" />
        </mxCell>
        <mxCell id="430OXLAYMfgtic5GREOD-38" value="2" style="text;html=1;align=center;verticalAlign=middle;resizable=0;points=[];autosize=1;strokeColor=none;fillColor=none;" vertex="1" parent="1">
          <mxGeometry x="370" y="235" width="20" height="20" as="geometry" />
        </mxCell>
        <mxCell id="430OXLAYMfgtic5GREOD-39" value="8&lt;br&gt;" style="text;html=1;align=center;verticalAlign=middle;resizable=0;points=[];autosize=1;strokeColor=none;fillColor=none;" vertex="1" parent="1">
          <mxGeometry x="525" y="150" width="20" height="20" as="geometry" />
        </mxCell>
      </root>
    </mxGraphModel>
  </diagram>
</mxfile>
